<?xml version="1.0" standalone="no"?>
<!DOCTYPE svg PUBLIC "-//W3C//DTD SVG 20010904//EN"
 "http://www.w3.org/TR/2001/REC-SVG-20010904/DTD/svg10.dtd">
<svg version="1.0" xmlns="http://www.w3.org/2000/svg"
 width="1280.000000pt" height="1197.000000pt" viewBox="0 0 1280.000000 1197.000000"
 preserveAspectRatio="xMidYMid meet">
<metadata>
Created by potrace 1.16, written by Peter Selinger 2001-2019
</metadata>
<g transform="translate(0.000000,1197.000000) scale(0.100000,-0.100000)"
fill="#000000" stroke="none">
<path d="M4915 11148 c-27 -119 -35 -196 -37 -332 -3 -146 -2 -159 16 -172 11
-8 32 -14 46 -14 15 0 58 -11 96 -23 38 -13 92 -27 121 -31 29 -3 71 -13 95
-22 23 -8 74 -19 113 -25 102 -14 145 -28 145 -45 0 -8 12 -19 26 -24 15 -6
40 -20 56 -32 17 -11 56 -29 89 -39 109 -34 220 -102 200 -122 -7 -7 -16 -6
-28 5 -28 23 -134 75 -172 83 -19 4 -56 20 -83 36 -92 54 -107 58 -184 44 -90
-16 -234 -65 -258 -87 -11 -10 -23 -18 -28 -18 -9 0 -181 -171 -208 -206 -8
-11 -21 -27 -28 -36 -12 -15 -8 -24 30 -70 54 -65 210 -217 250 -242 l30 -19
41 41 c61 59 215 214 263 264 39 40 194 132 177 105 -27 -44 -65 -96 -78 -107
-8 -7 -29 -38 -46 -69 -18 -31 -55 -87 -84 -126 -29 -38 -60 -84 -69 -102 -8
-17 -38 -60 -65 -95 -27 -35 -59 -84 -71 -109 -12 -24 -48 -78 -80 -119 -31
-41 -66 -93 -78 -115 -11 -22 -41 -67 -67 -100 -26 -33 -58 -81 -71 -106 -13
-26 -45 -74 -71 -107 -26 -34 -68 -94 -93 -134 -25 -40 -57 -86 -71 -103 -15
-16 -38 -53 -53 -82 -14 -29 -39 -67 -55 -85 -16 -19 -52 -71 -80 -116 -28
-46 -68 -104 -90 -130 -21 -26 -48 -66 -60 -89 -11 -22 -43 -71 -71 -107 -28
-37 -67 -93 -86 -126 -19 -33 -44 -68 -54 -78 -10 -9 -40 -56 -65 -102 -26
-47 -59 -100 -74 -119 -64 -82 -71 -95 -71 -141 0 -35 9 -61 40 -114 22 -37
40 -69 40 -71 0 -1 -39 -32 -87 -68 -138 -103 -195 -147 -238 -185 -184 -160
-436 -445 -562 -637 -101 -153 -168 -264 -228 -379 -31 -60 -60 -116 -65 -125
-5 -9 -23 -52 -41 -96 -17 -44 -37 -94 -45 -112 -24 -53 -126 -374 -140 -438
-7 -33 -20 -89 -29 -125 -9 -36 -20 -92 -25 -125 -5 -33 -13 -84 -19 -114 -6
-30 -8 -57 -6 -61 8 -13 -23 -222 -34 -233 -15 -15 -14 -147 0 -147 8 0 8 -4
1 -13 -17 -20 -13 -147 4 -147 16 0 19 -36 3 -45 -7 -5 -5 -13 7 -26 9 -10 14
-25 10 -34 -3 -9 -2 -35 4 -58 5 -23 16 -96 25 -162 9 -66 30 -172 47 -235 17
-63 34 -131 38 -150 10 -44 61 -187 105 -292 8 -20 9 -19 -134 -43 -154 -25
-196 -21 -271 23 -36 21 -91 48 -123 61 -63 26 -62 24 -138 200 -35 81 -54
101 -95 101 -28 0 -38 -6 -55 -32 -18 -29 -20 -45 -16 -123 3 -72 9 -100 31
-142 36 -72 36 -135 -1 -169 -31 -29 -140 -64 -283 -92 -140 -27 -314 -74
-372 -99 -57 -26 -84 -62 -68 -92 21 -41 44 -44 148 -18 53 14 154 35 223 47
209 38 211 17 11 -116 -185 -124 -372 -302 -399 -379 -16 -48 -16 -49 7 -67
42 -34 63 -24 136 67 42 51 98 106 144 140 41 30 95 70 119 87 62 46 143 86
161 80 38 -14 40 -74 5 -126 -37 -54 -69 -120 -115 -236 -22 -56 -50 -120 -60
-141 -26 -50 -25 -84 2 -103 29 -21 61 -20 80 2 8 9 42 76 75 147 86 185 131
256 178 278 45 22 78 12 97 -28 9 -21 8 -44 -10 -118 -28 -124 -46 -250 -38
-275 12 -37 47 -72 71 -72 33 0 51 32 59 102 23 209 79 384 161 498 18 25 57
92 88 150 31 58 68 118 83 134 36 38 95 63 195 82 46 9 109 22 139 30 70 18
69 18 81 -8 19 -44 123 -209 167 -269 149 -199 327 -389 461 -491 338 -258
633 -396 1016 -478 33 -8 71 -19 85 -26 14 -6 66 -26 115 -43 171 -58 259 -91
268 -100 10 -10 -28 -34 -133 -84 -131 -62 -187 -85 -247 -102 -32 -9 -83 -27
-113 -40 -30 -13 -94 -35 -142 -50 -108 -33 -123 -48 -114 -112 3 -26 12 -54
20 -61 31 -31 145 -41 211 -18 22 8 144 21 270 30 127 9 295 21 375 26 79 6
175 16 212 22 94 15 111 37 149 187 12 50 -2 49 189 8 151 -33 193 -41 205
-38 5 1 46 -5 92 -14 168 -33 605 -1 853 64 126 33 176 48 260 77 52 17 117
42 144 53 27 12 53 18 57 14 4 -4 9 -26 11 -47 4 -55 33 -73 148 -91 52 -8
124 -20 160 -25 36 -6 117 -13 180 -15 63 -3 167 -7 232 -11 64 -3 158 -2 208
2 89 7 95 8 144 48 48 39 51 45 54 92 2 38 -2 56 -17 76 -24 30 -123 68 -179
68 -22 0 -53 5 -67 10 -15 6 -55 17 -89 24 -33 8 -90 25 -126 40 -104 40 -180
73 -186 79 -3 3 23 24 58 48 165 112 331 251 490 411 326 329 567 700 746
1148 53 132 122 341 122 370 0 27 20 37 90 45 36 3 135 15 220 26 85 11 193
24 240 29 47 5 117 13 155 19 39 6 95 13 125 15 229 19 235 19 265 3 17 -9
103 -87 192 -174 l161 -158 67 -138 c37 -76 74 -141 83 -144 23 -10 46 11 56
50 8 33 4 47 -57 168 -37 72 -67 140 -67 152 0 11 7 28 16 38 39 43 115 -7
259 -172 49 -56 94 -99 104 -99 42 0 67 65 34 91 -9 8 -50 57 -91 109 -42 52
-102 120 -134 151 -58 57 -70 86 -44 108 17 14 66 8 151 -21 149 -50 210 -80
278 -135 16 -13 36 -23 46 -23 22 0 71 23 71 33 0 20 -91 100 -138 122 -29 13
-67 34 -83 46 -30 21 -278 109 -309 109 -19 0 -40 19 -40 36 0 16 21 20 210
40 169 18 200 28 200 65 0 10 -11 26 -25 35 -29 19 -200 21 -345 4 -47 -5
-120 -10 -162 -10 -67 0 -81 3 -105 24 -27 24 -28 27 -26 111 4 142 -32 245
-87 245 -39 0 -58 -42 -66 -141 -6 -87 -20 -149 -33 -149 -4 0 -37 -30 -72
-66 -35 -36 -75 -72 -90 -79 -31 -17 -270 -52 -444 -65 -71 -5 -197 -18 -280
-29 -82 -11 -172 -21 -200 -22 l-50 -3 2 60 c1 32 6 82 12 109 6 28 17 116 26
197 8 81 19 157 23 170 13 34 14 149 2 164 -6 6 -15 77 -20 156 -6 78 -13 158
-16 175 -5 29 0 40 43 90 171 200 221 364 197 648 -10 123 -26 140 -44 48 -15
-79 -73 -227 -116 -299 -37 -61 -111 -144 -129 -144 -5 0 -21 39 -34 88 -30
111 -48 171 -79 252 -19 49 -27 96 -33 195 -4 71 -13 150 -19 175 -20 86 -71
229 -86 240 -17 15 -17 12 -5 -117 5 -51 6 -104 2 -119 -6 -24 -12 -17 -70 82
-35 60 -77 127 -93 149 -82 113 -162 219 -177 234 -9 10 -52 57 -96 105 -88
95 -218 211 -335 298 -96 70 -184 128 -197 128 -5 0 -25 11 -44 25 -38 29
-195 106 -275 136 -63 24 -67 28 -98 110 -13 36 -33 81 -44 100 -11 18 -30 59
-42 89 -12 30 -46 105 -76 165 -29 61 -65 135 -79 165 -13 30 -34 71 -46 90
-12 19 -33 62 -47 95 -15 33 -48 96 -74 140 -26 44 -48 85 -48 91 0 16 -28 70
-75 144 -23 36 -52 91 -64 122 -13 31 -34 71 -48 90 -14 18 -43 70 -64 116
-21 45 -49 97 -62 115 -14 17 -43 70 -65 117 -23 47 -57 110 -76 140 -20 30
-36 61 -37 70 0 8 -20 47 -45 85 -25 39 -61 103 -80 144 -19 41 -45 88 -57
105 -20 27 -50 84 -177 333 -23 45 -40 87 -38 94 2 6 38 -19 81 -57 135 -122
191 -170 227 -194 19 -13 50 -37 68 -54 l32 -30 55 27 c30 14 71 42 92 60 21
19 63 52 93 74 30 23 82 69 115 102 l60 62 -71 67 c-171 160 -276 231 -371
252 -26 6 -75 19 -108 30 -115 36 -217 52 -359 56 l-141 3 -30 45 c-16 25 -34
46 -40 46 -6 0 -33 26 -60 59 -28 32 -66 69 -84 82 -19 13 -60 47 -90 75 -31
28 -81 67 -111 87 -30 20 -73 49 -95 65 -49 36 -183 88 -250 97 -27 4 -77 16
-110 26 -53 15 -190 39 -231 39 -7 0 -16 -10 -19 -22z m1030 -1068 c27 -23 38
-94 26 -181 -6 -45 -12 -83 -14 -84 -1 -1 -18 -6 -37 -12 -19 -5 -34 -15 -33
-21 3 -13 -33 -26 -48 -16 -8 4 -8 0 0 -15 7 -11 24 -27 39 -35 61 -32 295
-18 415 25 l61 22 29 -34 c16 -19 51 -79 77 -134 42 -86 47 -102 34 -112 -16
-12 -204 -66 -300 -86 -35 -7 -144 -12 -269 -12 -115 -1 -218 -4 -227 -9 -22
-10 -24 -42 -3 -50 8 -3 14 -11 13 -17 -2 -7 16 -16 42 -22 71 -14 74 -21 52
-113 -11 -43 -29 -111 -41 -150 -20 -68 -23 -72 -56 -78 -62 -12 -74 -79 -20
-105 98 -47 457 -53 695 -11 78 13 241 67 335 109 37 17 74 31 81 31 7 0 20
-20 30 -45 9 -25 38 -79 64 -119 25 -41 52 -93 60 -116 13 -40 13 -43 -11 -61
-38 -29 -219 -105 -363 -154 -134 -44 -223 -67 -356 -88 -100 -16 -436 -15
-523 2 -60 12 -70 11 -92 -3 -20 -13 -24 -22 -19 -41 5 -22 3 -25 -22 -25 -23
0 -29 -5 -30 -22 -1 -13 -13 -59 -27 -103 -58 -186 -87 -284 -93 -322 l-6 -40
56 -23 c65 -26 73 -34 52 -56 -21 -20 -20 -29 4 -52 35 -32 257 -62 465 -62
455 0 873 113 1209 324 48 31 93 56 100 56 6 0 20 -24 30 -52 10 -29 31 -75
48 -102 24 -40 68 -137 68 -151 0 -2 -31 -26 -68 -53 -280 -204 -649 -371
-957 -436 -146 -30 -184 -36 -316 -47 -171 -14 -369 0 -584 42 -82 16 -163 29
-180 29 -40 0 -67 -20 -69 -51 -1 -21 -6 -24 -32 -21 -17 2 -36 -3 -41 -10
-16 -19 -81 -254 -94 -337 -8 -57 -8 -79 2 -103 7 -17 13 -41 14 -54 0 -19 -4
-24 -25 -24 -42 0 -117 23 -174 52 -27 14 -46 -14 -46 -69 0 -24 -10 -72 -22
-106 -22 -65 -38 -252 -29 -332 2 -11 0 -43 -4 -72 -4 -28 -4 -60 1 -70 4 -10
9 -47 10 -83 3 -98 18 -202 32 -228 7 -12 10 -31 7 -42 -3 -10 3 -41 14 -67
11 -26 22 -64 26 -85 5 -32 2 -39 -22 -56 -15 -10 -44 -24 -63 -31 -19 -6 -55
-27 -79 -46 -50 -40 -67 -42 -151 -18 -130 36 -268 197 -321 375 -12 40 -24
77 -26 81 -8 13 -33 -14 -33 -35 0 -10 -4 -16 -10 -13 -18 11 -10 44 31 122
81 153 250 393 382 543 77 87 209 221 233 237 30 20 25 27 -42 59 l-55 26 -57
-54 c-31 -29 -73 -71 -92 -94 -184 -216 -258 -306 -296 -363 -84 -127 -106
-161 -139 -218 -42 -71 -61 -83 -84 -51 -19 28 -109 118 -175 175 -39 34 -47
47 -42 65 11 42 168 245 316 407 97 107 297 291 316 291 7 0 29 -9 49 -21 19
-12 42 -18 50 -15 21 8 19 39 -5 66 -16 19 -18 25 -6 34 15 12 69 143 113 274
27 78 29 82 53 77 35 -8 73 32 68 71 -2 22 -24 42 -127 111 -69 47 -156 109
-195 140 -90 69 -246 212 -246 223 0 5 13 29 28 52 16 24 45 68 65 98 20 30
52 72 70 94 l33 39 106 -81 c114 -86 284 -191 355 -218 35 -14 49 -15 69 -5
22 10 25 16 21 51 -2 23 -11 48 -19 57 -15 14 -14 19 7 62 13 25 30 64 38 86
8 22 29 78 47 125 17 47 35 93 41 102 5 10 9 27 9 38 0 15 7 20 26 20 19 0 25
4 20 15 -3 8 1 18 8 22 21 13 25 39 10 61 -8 12 -49 40 -92 63 -110 60 -262
159 -262 171 0 29 195 308 215 308 6 0 47 -20 91 -45 71 -41 172 -85 193 -85
14 0 41 37 51 69 7 24 5 33 -7 39 -13 8 -11 20 17 93 18 46 42 110 54 142 20
55 22 57 57 57 24 0 39 5 43 15 3 8 12 15 20 15 8 0 16 6 19 13 10 31 -11 49
-119 101 -63 31 -114 60 -114 66 0 7 20 37 44 68 24 32 61 85 81 120 20 34 42
62 49 62 7 0 28 -8 47 -17 42 -21 139 -44 139 -33 0 5 10 10 23 12 17 2 22 9
20 31 -1 15 3 27 10 27 6 0 -6 10 -28 21 -22 12 -41 22 -43 24 -8 7 103 205
115 205 7 0 16 7 20 16 5 13 16 15 56 11 27 -4 55 -11 62 -17z m-1786 -2801
c12 -17 68 -78 123 -135 57 -58 97 -108 92 -113 -5 -4 -43 -35 -84 -68 -154
-125 -396 -386 -527 -570 -25 -35 -51 -63 -59 -63 -7 0 -48 17 -91 38 -100 50
-123 58 -223 86 -46 12 -85 27 -87 33 -9 26 259 345 418 498 134 128 375 322
405 324 5 1 20 -13 33 -30z m4062 -241 c121 -87 339 -290 339 -315 0 -16 -44
-31 -72 -26 -14 3 -40 -3 -57 -12 -21 -10 -43 -14 -61 -10 -19 4 -42 -1 -69
-14 -22 -12 -50 -21 -62 -21 -11 0 -33 -6 -47 -14 -15 -8 -43 -17 -63 -21 -20
-3 -46 -16 -59 -30 -13 -14 -33 -25 -45 -25 -12 0 -39 -13 -60 -30 -21 -16
-44 -30 -51 -30 -7 0 -29 -13 -47 -30 -19 -16 -40 -30 -46 -30 -6 0 -28 -16
-50 -35 -21 -19 -43 -35 -49 -35 -15 0 -272 -258 -310 -311 -18 -24 -40 -57
-49 -73 -10 -15 -33 -46 -50 -68 -18 -22 -33 -44 -33 -50 0 -5 -13 -28 -28
-51 -16 -23 -41 -69 -56 -102 -15 -33 -41 -87 -56 -120 -80 -172 -159 -407
-189 -565 -5 -25 -16 -76 -25 -115 -20 -85 -46 -283 -46 -347 0 -47 -15 -72
-30 -48 -19 31 -31 697 -16 865 9 91 23 170 35 199 6 16 9 37 6 47 -3 9 3 34
14 55 12 22 18 47 15 60 -4 15 2 34 15 53 12 16 21 42 21 58 0 16 11 44 25 63
14 19 25 48 25 65 0 21 9 40 25 55 14 13 25 33 25 45 0 12 14 39 30 60 17 21
30 46 30 56 0 9 18 36 40 59 22 23 40 50 40 60 0 10 16 30 35 45 21 16 38 39
42 56 3 16 9 29 14 29 15 0 79 62 79 76 0 8 18 25 41 39 22 15 49 42 61 61 11
18 27 34 36 34 8 0 34 20 58 44 23 24 61 53 85 64 24 11 59 34 78 51 18 17 50
35 70 41 44 12 55 19 69 45 6 12 34 28 68 40 31 11 75 34 97 52 24 20 50 33
67 33 16 0 41 11 57 25 15 13 31 25 34 25 3 0 26 -14 50 -32z m-1883 -504 c2
-19 -5 -45 -17 -65 -12 -19 -21 -47 -21 -62 0 -16 -5 -38 -12 -50 -12 -21 -26
-102 -34 -197 -2 -25 -8 -89 -14 -143 -5 -55 -5 -108 -1 -121 5 -12 7 -33 4
-47 -2 -13 1 -65 7 -114 25 -199 42 -280 65 -324 8 -17 15 -40 15 -52 0 -24
41 -135 65 -181 8 -14 15 -32 15 -40 0 -7 7 -26 16 -43 9 -16 36 -68 59 -115
23 -47 58 -108 76 -137 19 -28 50 -77 69 -108 39 -65 134 -188 174 -224 14
-14 26 -30 26 -38 0 -27 -7 -23 -180 126 -39 33 -54 58 -99 162 -56 131 -59
136 -167 299 -73 111 -202 248 -282 299 -94 60 -162 113 -162 125 0 7 -9 21
-21 32 -16 15 -20 26 -15 53 4 24 0 42 -14 61 -14 20 -18 37 -14 59 5 21 0 41
-15 66 -16 28 -18 40 -10 62 8 21 6 37 -6 70 -12 31 -14 47 -6 62 15 27 13 62
-4 85 -12 16 -12 22 0 47 18 33 19 82 4 110 -8 15 -7 26 4 42 21 33 27 66 16
95 -8 20 -5 37 11 75 16 36 20 59 15 88 l-7 39 124 1 c78 0 156 7 213 19 114
23 119 22 123 -16z m2113 -644 c299 -56 529 -406 595 -904 50 -379 -45 -865
-222 -1139 -114 -176 -261 -279 -514 -361 -63 -21 -137 -46 -165 -56 -27 -10
-72 -23 -100 -28 -27 -6 -72 -16 -98 -22 l-49 -12 23 -24 c17 -18 20 -30 15
-54 -3 -18 -1 -41 6 -53 6 -12 12 -54 12 -94 1 -92 -12 -108 -159 -196 -136
-81 -243 -126 -255 -107 -5 8 -7 61 -6 119 2 58 0 115 -4 126 -4 11 -11 62
-15 113 l-7 92 53 0 c75 0 290 39 314 57 22 17 33 17 -175 -8 -87 -10 -142 -6
-195 13 -160 60 -259 261 -296 603 -20 192 7 679 42 746 7 13 15 31 19 39 4 8
27 29 51 46 36 25 44 37 47 65 3 51 42 218 51 224 5 2 11 -50 14 -118 3 -79
12 -143 25 -182 66 -209 214 -364 389 -411 109 -30 269 -12 335 36 15 11 31
20 36 20 21 0 128 94 167 146 45 60 104 194 125 284 8 30 14 102 14 160 2 249
-99 468 -279 604 -32 25 1 18 58 -10 318 -161 514 -510 477 -854 -15 -144 -72
-325 -132 -418 -13 -21 -30 -50 -38 -66 -26 -50 -150 -176 -219 -220 -92 -60
-118 -72 -202 -96 -154 -42 -342 -18 -475 62 l-66 40 -39 -28 c-21 -14 -39
-31 -39 -35 0 -5 30 -31 68 -58 129 -96 341 -143 495 -110 307 64 567 321 692
682 57 166 71 401 34 556 -39 160 -105 285 -236 438 -109 129 -162 170 -335
262 -72 39 -211 65 -271 51 -44 -9 -53 -8 -42 9 6 10 174 66 225 74 51 9 199
7 251 -3z m610 -230 c24 -11 54 -20 67 -20 24 0 39 -27 49 -87 6 -38 -11 -50
-89 -59 -61 -7 -64 -5 -95 72 -21 51 -21 51 -1 83 11 17 21 31 23 31 1 0 22
-9 46 -20z m-3561 -240 c0 -9 -44 -24 -111 -36 -50 -10 -192 -81 -257 -129
-96 -71 -294 -302 -338 -395 -9 -19 -32 -59 -50 -88 -19 -29 -34 -58 -34 -65
0 -7 -7 -22 -15 -33 -8 -10 -15 -26 -15 -35 0 -9 -11 -41 -24 -70 -22 -49 -42
-123 -75 -289 -12 -55 -9 -345 3 -357 3 -4 16 3 29 15 13 12 28 22 34 22 6 0
22 10 37 21 26 21 27 23 21 98 -15 173 41 421 139 621 90 182 269 387 394 451
37 19 69 36 72 39 15 15 53 30 75 30 14 0 25 5 25 10 0 6 9 10 21 10 16 0 0
-20 -68 -87 -98 -97 -135 -148 -192 -262 -46 -90 -76 -196 -89 -306 -14 -112
-14 -122 -1 -195 27 -152 50 -211 130 -321 108 -148 259 -216 454 -206 190 10
340 92 493 270 94 109 192 344 192 459 0 24 4 38 8 32 17 -18 33 -153 33 -271
-1 -293 -109 -552 -320 -764 -124 -124 -281 -211 -451 -250 -71 -16 -239 -16
-310 0 -117 27 -221 78 -313 155 l-47 40 -28 -22 c-15 -12 -37 -27 -49 -34
-13 -6 -23 -16 -23 -23 0 -12 79 -83 138 -124 36 -25 179 -88 215 -95 12 -2
53 -11 92 -20 75 -18 251 -15 330 5 334 85 606 313 755 636 120 257 147 481
95 783 l-6 35 16 -27 c69 -121 155 -426 185 -663 52 -408 -3 -706 -163 -881
-113 -124 -312 -215 -862 -395 -447 -147 -649 -145 -847 8 -87 68 -114 95
-179 191 -187 272 -299 702 -299 1147 0 525 192 977 506 1195 105 73 289 146
429 169 71 12 245 13 245 1z m2221 -361 c65 -84 46 -208 -40 -266 -42 -28 -76
-29 -118 -3 -85 52 -88 184 -5 273 22 23 33 27 82 27 52 0 59 -3 81 -31z
m-561 -269 c-7 -28 -33 -65 -82 -118 -39 -42 -95 -107 -125 -144 -29 -38 -58
-68 -63 -68 -21 0 -8 28 50 105 32 44 68 94 80 110 11 17 49 71 83 120 55 80
62 87 65 63 2 -14 -2 -45 -8 -68z m-4388 8 c101 -94 195 -166 270 -208 20 -11
53 -31 73 -44 19 -14 40 -26 45 -28 12 -4 36 -127 50 -258 22 -206 64 -398
132 -613 22 -70 38 -130 35 -134 -3 -3 -66 -15 -139 -28 -73 -13 -153 -28
-176 -35 -40 -10 -48 -9 -95 15 -101 53 -104 59 -152 215 -57 184 -83 308
-111 525 -30 234 -30 645 -1 645 7 0 38 -24 69 -52z m2623 -19 c76 -21 115
-76 115 -164 0 -65 -16 -100 -64 -142 -47 -42 -102 -51 -154 -24 -72 37 -101
105 -82 195 11 56 46 98 105 129 36 20 31 19 80 6z m2464 -177 c18 -20 22 -33
17 -60 -7 -44 -30 -80 -62 -94 -20 -10 -29 -8 -52 9 -53 40 -54 102 -2 155 35
34 61 32 99 -10z m-4413 -238 c33 -14 75 -34 94 -44 19 -10 50 -21 68 -25 44
-9 54 -34 58 -139 4 -106 12 -228 19 -271 3 -16 14 -88 25 -159 14 -83 18
-132 11 -139 -10 -10 -153 -47 -183 -47 -13 0 -25 24 -47 94 -43 133 -100 400
-111 519 -24 250 -24 237 -8 237 9 0 42 -12 74 -26z m3436 -10 c3 -16 11 -76
18 -134 6 -58 15 -130 20 -160 35 -204 45 -601 20 -785 -5 -38 -12 -92 -16
-120 -3 -27 -12 -65 -21 -83 -8 -19 -12 -44 -9 -56 3 -13 -3 -35 -14 -54 -11
-18 -20 -46 -20 -62 0 -16 -9 -44 -20 -62 -11 -18 -20 -45 -20 -59 0 -14 -11
-40 -25 -59 -14 -19 -25 -44 -25 -57 0 -29 -26 -40 -143 -59 -162 -26 -258
-32 -354 -20 -50 6 -94 14 -98 17 -6 6 43 67 115 144 15 17 36 44 46 61 62
105 89 139 186 234 110 108 137 145 178 240 46 108 56 167 74 426 8 116 19
230 25 255 28 128 52 326 45 386 -5 52 26 58 38 7z m-1501 -93 c36 -37 39 -84
7 -131 -45 -66 -116 -60 -151 13 -23 46 -17 79 23 118 39 39 82 39 121 0z
m-1529 -148 c19 -21 46 -44 61 -52 15 -8 37 -30 48 -48 12 -19 36 -40 54 -47
19 -8 50 -33 70 -55 21 -23 44 -41 52 -41 26 0 59 -48 71 -102 6 -29 23 -116
37 -193 14 -77 32 -158 39 -180 8 -22 22 -67 31 -100 28 -105 37 -128 71 -204
47 -102 46 -111 -13 -111 -68 0 -294 38 -312 53 -60 50 -214 550 -237 772 -2
17 -10 89 -19 160 -14 124 -13 185 5 185 4 0 23 -17 42 -37z m5143 -195 c15
-29 41 -84 56 -122 l28 -69 -41 -106 c-53 -136 -125 -291 -191 -410 l-52 -94
-8 34 c-4 19 -9 63 -11 99 -7 117 -21 223 -46 338 l-11 52 52 53 c55 56 106
126 159 220 17 31 33 57 35 57 2 0 15 -24 30 -52z m-5180 -625 c9 -27 28 -75
41 -108 13 -33 27 -75 30 -93 l7 -33 -39 6 c-21 4 -62 13 -90 21 -52 14 -52
14 -99 104 -25 50 -45 98 -43 108 3 18 79 39 145 41 29 1 33 -3 48 -46z m4135
-377 c-7 -25 -10 -60 -6 -77 3 -18 0 -45 -9 -66 -8 -19 -15 -55 -15 -78 0 -23
-7 -62 -15 -85 -8 -23 -15 -60 -15 -80 0 -21 -9 -59 -20 -85 -11 -26 -20 -61
-20 -79 0 -18 -11 -60 -25 -94 -14 -34 -25 -73 -25 -87 0 -14 -9 -43 -20 -65
-11 -22 -20 -45 -20 -53 0 -33 -56 -67 -358 -218 -168 -84 -212 -100 -184 -67
5 7 18 33 28 58 10 25 28 58 41 73 13 16 23 34 23 40 0 7 13 39 29 72 16 33
33 74 37 90 4 17 16 44 26 60 10 17 18 42 18 56 0 15 9 46 20 70 11 24 20 55
20 68 0 17 27 53 88 116 85 89 248 285 295 356 95 141 133 168 107 75z m-366
-344 c11 -18 -112 -115 -231 -185 -74 -43 -269 -106 -368 -119 -169 -23 -237
-21 -346 7 -118 30 -169 50 -169 64 0 10 242 132 312 157 90 32 190 3 280 -82
45 -42 68 -49 68 -20 0 21 -67 92 -100 106 -16 7 -30 16 -30 20 0 20 155 44
325 50 99 4 197 7 217 8 20 1 39 -2 42 -6z m-1355 -136 c70 -46 158 -99 196
-117 39 -18 80 -39 93 -47 l22 -14 -40 -39 c-22 -22 -40 -46 -40 -55 0 -9 -24
-40 -52 -69 -29 -30 -64 -67 -78 -82 -14 -15 -44 -43 -66 -62 -23 -18 -47 -44
-52 -56 -6 -13 -30 -36 -54 -52 -23 -15 -52 -43 -65 -61 -21 -32 -84 -82 -103
-82 -5 0 -19 -14 -31 -31 -32 -45 -73 -60 -134 -48 -118 23 -241 55 -269 71
-19 10 -110 45 -196 75 -43 14 -153 64 -266 119 -29 14 -61 36 -73 48 l-22 24
37 7 c20 3 48 13 61 22 13 9 46 17 74 18 33 2 61 10 79 24 16 11 44 21 62 21
18 0 51 11 73 25 22 13 49 25 61 25 12 0 39 12 60 26 21 15 55 31 74 36 19 6
46 20 60 33 14 13 43 31 65 40 22 9 49 24 60 34 11 10 38 28 60 39 22 11 50
32 62 46 13 14 27 26 33 26 9 0 85 63 145 120 11 11 24 20 29 20 6 0 66 -38
135 -84z"/>
<path d="M7264 4579 c9 -86 40 -212 52 -216 5 -2 25 12 43 31 l34 35 -14 80
c-12 80 -13 81 -47 91 -19 5 -43 17 -54 27 -21 18 -21 18 -14 -48z"/>
</g>
</svg>
